<?xml version="1.0" encoding="utf-8"?>
<!-- Generator: Adobe Illustrator 17.1.0, SVG Export Plug-In . SVG Version: 6.00 Build 0)  -->
<!DOCTYPE svg PUBLIC "-//W3C//DTD SVG 1.1//EN" "http://www.w3.org/Graphics/SVG/1.1/DTD/svg11.dtd">
<svg version="1.1" id="Layer_1" xmlns="http://www.w3.org/2000/svg" xmlns:xlink="http://www.w3.org/1999/xlink" x="0px" y="0px"
	 viewBox="0 0 54.4 82.3" enable-background="new 0 0 54.4 82.3" xml:space="preserve">
<g id="lIGfXR_1_">
	<g>
		<path fill="#e2decc" d="M0,41c0-0.2,0-0.5,0-0.7c0.6-4.2,2.4-8.1,3.6-12.1c0.3-1,0.5-2,0.5-3c0-1.2,0.3-2.3,0.7-3.4
			c0.1-0.5,0.4-0.9,0.9-1.3c0.4-0.3,0.8-0.7,1.2-1.1c1.7-1.6,1.9-2.6,0.8-4.6c-0.6-1.1-0.8-2.2-0.2-3.3c0.3-0.5,0.2-1.2,0.4-1.7
			c0.6-2.1,2.5-3.4,4.7-2.6c0.9,0.4,2,1,2.3,1.8c0.5,1.5,0.6,3.2,0.5,4.8c0,0.3-0.3,0.5-0.4,0.7c-0.3,0.5-0.3,1-0.1,1.6
			c0.5,1.4,1.4,2.3,2.7,2.9c0.6,0.3,1,1,1.4,1.4c0.7,0.8,1.2,0.7,1.9-0.1c0.6-0.8,0.7-1.5,0.4-2.5c-0.4-1.6-0.5-3.4,0.1-5
			c0.2-0.5,0.6-1,1-1.3c1.2-0.9,2.3-1.9,4-1.9c0.6,0,1.2,0.2,1.7,0.5c1.9,1.6,3,3.5,2.2,6c-0.2,0.6-0.2,1.2-0.3,1.7
			c-0.1,1,0.1,1.3,1.2,1.5c0.3,0.1,0.6,0.2,0.9,0.2c1.5,0,2.2,0.9,2.6,2.2c0.2,0.7,0.4,1.5,0.8,2.3c0.3-1.2,1.2-1.7,2.1-2.2
			c0.8-0.4,1.7-0.8,2.6-1.1c0.7-0.2,0.8-0.6,0.3-1.1c-1.2-1.1-1.7-2.6-2-4c-0.4-1.8,0-3.7,1.4-5.2c1.1-1,4.7-1.2,5.9,0.8
			c0.7,1.1,1.2,2.5,0.9,3.9c-0.5,2.3,0.5,3.8,2.7,4.4c0.1,0,0.2,0,0.3,0.1c2.9,0.8,3.7,1.8,4.1,4.9c0.1,1.2-0.2,2-0.8,3
			c-1.6,2.4-2.2,5-1.6,7.9c0.3,1.5,0,3-0.1,4.5c0,0.3-0.1,0.6-0.1,0.9c0.1,2.9-0.1,5.7-0.2,8.5c-0.2,4.6-0.1,9.2-0.1,13.9
			c0,0.8-0.1,1.6-0.2,2.3c-0.3,1.9-0.1,3.8,0.1,5.7c0,0.5,0.1,0.9-0.1,1.4c-0.6,1.1-1.3,2-2.2,2.8c-1.1,0.9-2.4,0.8-3.6,0.5
			c-1-0.2-1.3-1.2-1-2.4c0.3-1.3,0.3-1.3-1-1.4c-1.4-0.1-2.7-0.3-4.1-0.4C37.6,71.8,36.8,72,36,72c-1,0-1.8-0.3-2.2-1.3
			c-0.1-0.2-0.1-0.4-0.3-0.5c-1.2-0.9-2.5-1.7-3.8-2.5c-0.3,0.6,0.1,0.8,0.3,1.1c0.4,0.6,0.7,1.2,0.7,2c0,0.9-0.3,1.2-1.2,1.4
			c-1.9,0.4-3.3-0.6-4.7-1.8c-0.2-0.2-0.3-0.4-0.3-0.7c0.2-2.1-0.9-4-1.4-5.9c-0.6-2.1-1.2-4.3-1-6.5c0.1-1.5,0.5-3,0.6-4.5
			c0.1-1.9-0.2-3.7-0.3-5.6c-0.1-0.9-0.8-1.6-1.1-2.5c-0.5-1.5-1.3-2.9-2.1-4.4c-0.1-0.2-0.2-0.5-0.3-0.8c0.1,1.6-0.1,3.1-0.1,4.7
			c0,2.1,0,4.3,0,6.4c0,1.5,0,2.9-0.2,4.4c-0.2,1.5,0.1,3,0.2,4.5c0.1,2.6-0.4,5.1-0.1,7.7c0.1,1.2-0.3,2.1-1.1,2.8
			C17,70.4,17,70.8,17,71.3c0.1,0.7-0.2,1.3-0.8,1.8c-0.7,0.6-1.3,1.2-2,1.8c-1.3,1-2.8,1-4.3,0.7c-1-0.2-1.4-1.4-0.8-2.2
			c0.5-0.7,1-1.3,1.4-2c0.4-0.7,0.1-1.1-0.7-1c-0.4,0-0.9,0-1.3,0.1c-1.5,0.2-2.5-0.6-3.7-1.3c-0.5-0.3-0.4-0.8-0.4-1.2
			c0.2-2.4,0.5-4.8,0.4-7.1C4.7,57,4.5,53.3,4.5,49.5c0-0.4-0.1-0.8-0.3-1.1c-0.7-0.9-0.5-1.9-0.1-2.8c0.3-0.6,0.3-1.1,0-1.9
			c0.4,1.3,0.2,2-0.5,2.2c-0.8,0.3-1.9-0.1-2.3-1c-0.2-0.5-0.5-1-0.4-1.5C1.2,42.4,0.7,41.7,0,41z"/>
		<path fill="#FFFFFF" d="M0,41c0.1,0,0.3,0.1,0.4,0.1c1.3,0.5,1.3,0.5,1,1.9c-0.2,0.8,0.1,1.5,0.6,2.2c0.3,0.4,0.7,0.5,1.1,0.5
			c0.9-0.1,1.2-0.8,0.7-1.4C3.4,43.5,3.8,43,4,42.4c0.1-0.2,0.3-0.3,0.5-0.2c0.2,0.1,0.3,0.3,0.3,0.5c-0.2,1.2,0,2.5-0.3,3.7
			c-0.2,0.6-0.3,1.3,0.4,1.8C5.1,48.3,5,48.7,5,48.9c0,0.7,0,1.4,0,2c-0.1,2.5,0.1,5,0.2,7.5c0.1,1.4,0.2,2.8,0.1,4.3
			c-0.1,1.8-0.3,3.5-0.4,5.3c-0.1,0.5,0.1,0.7,0.5,1c1.5,1.2,3.1,1.3,4.8,0.8c0.2,0,0.4-0.1,0.5-0.1c0.4,0.1,0.7,0.2,0.6,0.8
			c-0.2,1.1-1,1.9-1.6,2.8c-0.3,0.4-0.7,0.8-0.4,1.3c0.2,0.5,0.7,0.6,1.2,0.7c1.6,0.1,2.9-0.2,4.1-1.4c0.3-0.3,0.7-0.6,1.1-0.9
			c0.8-0.6,0.9-1.3,0.7-2.2c-0.2-0.8-0.2-0.8,0.6-1.1c0.6-0.3,1.1-0.7,1-1.4c-0.1-2.4,0.1-4.8,0.2-7.2c0-1.3-0.2-2.6-0.2-3.9
			c0.2-4.9,0-9.7,0.2-14.6c0.1-1.5,0.1-3,0.4-4.6c0.8,2.6,2.5,4.8,3.3,7.4c0,0.1,0.1,0.3,0.2,0.3c0.8,0.7,0.7,1.7,0.7,2.7
			c0,0.7,0.1,1.4,0.2,2c0.3,2-0.2,4-0.4,6c-0.3,1.8,0,3.5,0.4,5.2c0.3,1.1,0.7,2.3,1,3.4c0.2,0.7,0.3,1.4,0.8,2
			c0.2,0.3,0.2,0.6,0.2,1c-0.3,1.4,0.2,2.3,1.5,3.1c0.9,0.5,1.8,0.7,2.7,0.7c0.9-0.1,1.2-0.5,0.9-1.3c-0.2-0.6-0.4-1.1-0.8-1.6
			c-0.5-0.6-1-1.3-0.7-2.2c0.9,0.3,1.5,0.9,2.3,1.3c0.9,0.6,1.7,1.3,2.8,1.5c0.3,0.1,0.3,0.3,0.4,0.5c0.2,1.1,0.7,1.6,1.8,1.5
			c2.1-0.3,4.2,0.2,6.3,0.3c0.6,0.1,1.2,0,1.9,0.1c0.7,0,0.8,0.2,0.5,0.9c-0.2,0.3-0.4,0.6-0.5,1c-0.5,1.2,0.1,2,1.4,2.1
			c1.6,0.1,2.8-0.4,3.6-1.9c0.1-0.3,0.4-0.4,0.6-0.6c0.3-0.5,0.9-0.9,0.3-1.6c0,0,0-0.1,0-0.2c0.1-2.6-0.2-5.1,0.3-7.7
			c0.1-0.4,0-0.7,0-1.1c0-3.3-0.1-6.5,0-9.8c0.1-2.6,0-5.3,0.3-7.9c0.1-0.6,0-1.1,0-1.7c0-2.4,0.2-4.8,0.3-7.1c0-0.2,0-0.4,0-0.5
			c-0.3-0.8-0.2-1.6-0.3-2.5c-0.1-2.3,0.7-4.3,2.1-6c0.8-1.1,0.6-2.1,0.4-3.1c-0.1-0.6-0.4-1.1-0.5-1.7c-0.2-0.9-0.7-1.4-1.5-1.6
			c-1-0.3-2.1-0.6-3.1-0.9c-0.2-0.1-0.5-0.1-0.7-0.3c-0.6-1.1-1.8-2.1-1.3-3.6c0.6-1.6-0.2-2.9-0.7-4.2c-0.3-0.9-1.3-1.1-2.3-1.2
			c-0.4,0-0.7,0-1.1,0c-1.7,0-3.1,1.5-3,3.2c0,0.1,0.1,0.3,0.1,0.4c-0.7,1.3,0.3,2.4,0.6,3.6c0.2,1,0.8,1.7,1.7,2.3
			c0.3,0.2,0.6,0.3,0.6,0.6c0,0.4-0.4,0.5-0.7,0.6c-0.9,0.4-2,0.5-2.9,1.1c-0.5,0.3-1,0.5-1.4,0.8c-0.5,0.3-0.8,0.7-0.7,1.4
			c0.1,0.5-0.3,0.8-0.6,1.2c-0.4-0.8-0.7-1.5-0.9-2.2c-0.2-0.7-0.5-1.5-0.7-2.2c-0.2-0.6-0.6-0.9-1.2-1c-1-0.1-1.9-0.3-2.8-0.6
			c-0.4-0.1-0.6-0.3-0.5-0.7c0.2-1,0.2-2.1,0.5-3.2c0.7-2.1-0.8-4.4-2.3-5.3c-0.8-0.5-1.7-0.4-2.6,0c-0.4,0.2-0.9,0.5-1.3,0.7
			c-1.8,1-2.3,2.5-2.2,4.6c0.1,1,0.1,2,0.5,2.9c0.3,0.5,0.2,1.2-0.5,1.6c-0.1,0.1-0.2,0.2-0.2,0.3c0,1.2-1.1,0.9-1.8,1.2
			c-0.3,0.2-0.5-0.1-0.7-0.3c-0.5-1.1-1.3-1.8-2.4-2.4c-0.9-0.5-1.6-1.1-1.9-2.2c-0.1-0.4-0.4-0.8-0.7-1.2c-0.3-0.4-0.3-0.7,0.1-0.9
			c0.4-0.3,0.7-0.7,0.9-1.2c0.1-0.3,0.2-0.7-0.1-1c-0.4-0.4-0.3-0.8-0.2-1.3c0-0.8,0.3-1.7-0.4-2.4c-0.8-0.8-1.7-1.5-3-1.5
			c-1.3,0-2.6,1-2.9,2.3c-0.1,0.4-0.3,0.9-0.2,1.4c0,0.2,0,0.5-0.2,0.7c-0.6,0.8-0.4,1.7,0,2.5c0.3,0.6,0.6,1.2,1,1.8
			c0.4,0.4,0.4,0.9,0,1.3c-0.5,0.6-0.9,1.3-1.2,2C7.6,19.6,7.3,19.8,7,20c-1,0.7-1.7,1.4-2,2.7c-0.3,1.4-0.4,2.8-0.6,4.1
			c0,0.2-0.1,0.5-0.1,0.7c-1.3,4-2.7,8-4,12C0.2,39.8,0.1,40,0,40.2C0,26.8,0,13.4,0,0c18.1,0,36.2,0,54.4,0c0,27.4,0,54.8,0,82.3
			c-18.1,0-36.2,0-54.4,0C0,68.5,0,54.7,0,41z"/>
		<path fill="#FFFFFF" d="M28.3,64c-0.3,0-0.4-0.2-0.5-0.4c-0.1-0.7-0.3-1.3-0.3-2c0-1,0-1.9,0.1-2.9c0-0.3,0-0.6,0.1-0.8
			c0.6-2.1,1.2-4.2,1.8-6.2c0.1-0.2,0.1-0.5,0.5-0.7c0.5,0.9,1.2,1.8,2,2.5c0.3,0.2,0.2,0.6,0,0.9c-0.8,1.4-1,2.9-1.6,4.4
			c-0.1,0.2-0.1,0.5-0.1,0.7c0.1,0.8-0.2,1.4-0.8,1.9c-0.4,0.4-0.8,0.8-1.1,1.3C28.1,63,28.5,63.6,28.3,64z"/>
	</g>
</g>
</svg>
